<svg width="82" height="60" viewBox="0 0 82 60" fill="none" xmlns="http://www.w3.org/2000/svg">
<path d="M33.381 25.854V36H31.12V34.708C30.74 35.164 30.265 35.5187 29.695 35.772C29.125 36.0127 28.5107 36.133 27.852 36.133C26.4967 36.133 25.4263 35.7593 24.641 35.012C23.8683 34.252 23.482 33.131 23.482 31.649V25.854H25.857V31.326C25.857 32.238 26.0597 32.922 26.465 33.378C26.883 33.8213 27.472 34.043 28.232 34.043C29.0807 34.043 29.752 33.7833 30.246 33.264C30.7527 32.732 31.006 31.972 31.006 30.984V25.854H33.381ZM44.8696 35.449C44.591 35.677 44.249 35.848 43.8436 35.962C43.451 36.076 43.033 36.133 42.5896 36.133C41.475 36.133 40.6136 35.8417 40.0056 35.259C39.3976 34.6763 39.0936 33.8277 39.0936 32.713V27.83H37.4216V25.93H39.0936V23.612H41.4686V25.93H44.1856V27.83H41.4686V32.656C41.4686 33.15 41.589 33.53 41.8296 33.796C42.0703 34.0493 42.4186 34.176 42.8746 34.176C43.4066 34.176 43.85 34.0367 44.2046 33.758L44.8696 35.449ZM58.3074 30.984C58.3074 31.1487 58.2947 31.383 58.2694 31.687H50.3084C50.4477 32.4343 50.8087 33.0297 51.3914 33.473C51.9867 33.9037 52.7214 34.119 53.5954 34.119C54.71 34.119 55.6284 33.7517 56.3504 33.017L57.6234 34.48C57.1674 35.0247 56.591 35.4363 55.8944 35.715C55.1977 35.9937 54.4124 36.133 53.5384 36.133C52.4237 36.133 51.442 35.9113 50.5934 35.468C49.7447 35.0247 49.086 34.4103 48.6174 33.625C48.1614 32.827 47.9334 31.9277 47.9334 30.927C47.9334 29.939 48.155 29.0523 48.5984 28.267C49.0544 27.469 49.6814 26.8483 50.4794 26.405C51.2774 25.9617 52.1767 25.74 53.1774 25.74C54.1654 25.74 55.0457 25.9617 55.8184 26.405C56.6037 26.8357 57.2117 27.45 57.6424 28.248C58.0857 29.0333 58.3074 29.9453 58.3074 30.984ZM53.1774 27.64C52.4174 27.64 51.7714 27.868 51.2394 28.324C50.72 28.7673 50.4034 29.3627 50.2894 30.11H56.0464C55.945 29.3753 55.6347 28.78 55.1154 28.324C54.596 27.868 53.95 27.64 53.1774 27.64ZM66.0037 36.133C65.1804 36.133 64.376 36.0253 63.5907 35.81C62.8054 35.5947 62.1784 35.3223 61.7097 34.993L62.6217 33.188C63.0777 33.492 63.6224 33.739 64.2557 33.929C64.9017 34.1063 65.535 34.195 66.1557 34.195C67.5744 34.195 68.2837 33.8213 68.2837 33.074C68.2837 32.7193 68.1 32.4723 67.7327 32.333C67.378 32.1937 66.8017 32.0607 66.0037 31.934C65.1677 31.8073 64.4837 31.6617 63.9517 31.497C63.4324 31.3323 62.9764 31.0473 62.5837 30.642C62.2037 30.224 62.0137 29.6477 62.0137 28.913C62.0137 27.9503 62.4127 27.184 63.2107 26.614C64.0214 26.0313 65.1107 25.74 66.4787 25.74C67.1754 25.74 67.872 25.8223 68.5687 25.987C69.2654 26.139 69.8354 26.348 70.2787 26.614L69.3667 28.419C68.5054 27.9123 67.5364 27.659 66.4597 27.659C65.763 27.659 65.231 27.7667 64.8637 27.982C64.509 28.1847 64.3317 28.457 64.3317 28.799C64.3317 29.179 64.5217 29.4513 64.9017 29.616C65.2944 29.768 65.896 29.9137 66.7067 30.053C67.5174 30.1797 68.1824 30.3253 68.7017 30.49C69.221 30.6547 69.6644 30.9333 70.0317 31.326C70.4117 31.7187 70.6017 32.276 70.6017 32.998C70.6017 33.948 70.19 34.708 69.3667 35.278C68.5434 35.848 67.4224 36.133 66.0037 36.133ZM81.026 35.449C80.7474 35.677 80.4054 35.848 80 35.962C79.6074 36.076 79.1894 36.133 78.746 36.133C77.6314 36.133 76.77 35.8417 76.162 35.259C75.554 34.6763 75.25 33.8277 75.25 32.713V27.83H73.578V25.93H75.25V23.612H77.625V25.93H80.342V27.83H77.625V32.656C77.625 33.15 77.7454 33.53 77.986 33.796C78.2267 34.0493 78.575 34.176 79.031 34.176C79.563 34.176 80.0064 34.0367 80.361 33.758L81.026 35.449Z" fill="#415F9D"/>
<path d="M53.9448 48.0733C50.1602 53.0875 44.897 56.787 38.8975 58.6502C32.8981 60.5134 26.4651 60.4462 20.5058 58.4581C14.5466 56.4699 9.36184 52.6612 5.6828 47.5691C2.00375 42.477 0.0160728 36.3584 9.70076e-05 30.0763C-0.0158788 23.7942 1.94065 17.6656 5.59375 12.5548C9.24685 7.44403 14.4122 3.609 20.3612 1.5906C26.3103 -0.427799 32.7428 -0.527724 38.7517 1.30492C44.7606 3.13756 50.0425 6.8103 53.8526 11.8051L44.5057 18.935C42.1886 15.8975 38.9765 13.664 35.3222 12.5495C31.668 11.435 27.7561 11.4957 24.1383 12.7232C20.5205 13.9507 17.3792 16.2829 15.1577 19.3909C12.9361 22.499 11.7462 26.226 11.7559 30.0464C11.7657 33.8668 12.9744 37.5877 15.2118 40.6844C17.4492 43.7811 20.6022 46.0974 24.2262 47.3064C27.8503 48.5155 31.7624 48.5563 35.4109 47.4233C39.0594 46.2902 42.2602 44.0403 44.5617 40.9911L53.9448 48.0733Z" fill="#415F9D"/>
</svg>
