<svg width="49" height="65" viewBox="0 0 49 65" fill="none" xmlns="http://www.w3.org/2000/svg">
<path d="M42.875 8.125H35.9997C34.3128 3.40234 29.8211 0 24.5 0C19.1789 0 14.6872 3.40234 13.0029 8.125H6.125C2.74349 8.125 0 10.852 0 14.2188V58.9062C0 62.2705 2.74349 65 6.125 65H42.875C46.2565 65 49 62.273 49 58.9062V14.2188C49 10.852 46.2565 8.125 42.875 8.125ZM12.25 49.7656C10.5592 49.7656 9.1875 48.4009 9.1875 46.7188C9.1875 45.0366 10.5592 43.6719 12.25 43.6719C13.9408 43.6719 15.3125 45.0366 15.3125 46.7188C15.3125 48.4009 13.9471 49.7656 12.25 49.7656ZM12.25 37.5781C10.5592 37.5781 9.1875 36.2134 9.1875 34.5312C9.1875 32.8491 10.5592 31.4844 12.25 31.4844C13.9408 31.4844 15.3125 32.8555 15.3125 34.5312C15.3125 36.207 13.9471 37.5781 12.25 37.5781ZM24.5 8.125C26.7548 8.125 28.5833 9.94424 28.5833 12.1875C28.5833 14.4308 26.7548 16.25 24.5 16.25C22.2452 16.25 20.4167 14.4346 20.4167 12.1875C20.4167 9.94424 22.2414 8.125 24.5 8.125ZM38.7917 48.75H22.4583C21.3354 48.75 20.4167 47.8359 20.4167 46.7188C20.4167 45.6016 21.3354 44.6875 22.4583 44.6875H38.7917C39.9147 44.6875 40.8333 45.6014 40.8333 46.7188C40.8333 47.8359 39.9146 48.75 38.7917 48.75ZM38.7917 36.5625H22.4583C21.3354 36.5625 20.4167 35.6484 20.4167 34.5312C20.4167 33.4141 21.3354 32.5 22.4583 32.5H38.7917C39.9146 32.5 40.8333 33.4141 40.8333 34.5312C40.8333 35.6484 39.9146 36.5625 38.7917 36.5625Z" fill="#233B6E"/>
</svg>
