<svg width="49" height="65" viewBox="0 0 49 65" fill="none" xmlns="http://www.w3.org/2000/svg">
<path d="M42.875 8.125H35.9997C34.3128 3.40234 29.8211 0 24.5 0C19.1789 0 14.6872 3.40234 13.0029 8.125H6.125C2.74349 8.125 0 10.852 0 14.2188V58.9062C0 62.2705 2.74349 65 6.125 65H42.875C46.2565 65 49 62.273 49 58.9062V14.2188C49 10.852 46.2565 8.125 42.875 8.125ZM24.5 8.125C26.7548 8.125 28.5833 9.94424 28.5833 12.1875C28.5833 14.4308 26.7548 16.25 24.5 16.25C22.2452 16.25 20.4167 14.4346 20.4167 12.1875C20.4167 9.94424 22.2414 8.125 24.5 8.125ZM24.5 24.375C29.0108 24.375 32.6667 28.0122 32.6667 32.5C32.6667 36.9878 29.0108 40.625 24.5 40.625C19.9892 40.625 16.3333 36.9814 16.3333 32.5C16.3333 28.0186 19.9956 24.375 24.5 24.375ZM36.75 56.875H12.25C11.1225 56.875 10.2083 55.9655 10.2083 54.8438C10.2083 49.2324 14.7766 44.6875 20.4167 44.6875H28.5833C34.2209 44.6875 38.7917 49.235 38.7917 54.8438C38.7917 55.9609 37.8729 56.875 36.75 56.875Z" fill="#233B6E"/>
</svg>
