<svg width="65" height="57" viewBox="0 0 65 57" fill="none" xmlns="http://www.w3.org/2000/svg">
<path d="M0 7.125C0 3.18955 3.23307 0 7.22222 0H25.2778V14.25C25.2778 16.2205 26.8915 17.8125 28.8889 17.8125H43.3333V22.1098C34.9939 24.4365 28.8889 31.9957 28.8889 40.9688C28.8889 47.5482 32.1727 53.3596 37.2057 56.9221C36.8559 56.9666 36.4835 57 36.1111 57H7.22222C3.23307 57 0 53.8049 0 49.875V7.125ZM28.8889 14.25V0L43.3333 14.25H28.8889ZM65 40.9688C65 49.8193 57.7214 57 48.75 57C39.7786 57 32.5 49.8193 32.5 40.9688C32.5 32.1182 39.7786 24.9375 48.75 24.9375C57.7214 24.9375 65 32.1182 65 40.9688ZM53.7943 36.1482L46.9444 42.9059L43.7057 39.7107C43.0061 39.0094 41.855 39.0094 41.1554 39.7107C40.4444 40.401 40.4444 41.5365 41.1554 42.2268L45.6693 46.6799C46.3689 47.3812 47.52 47.3812 48.2196 46.6799L56.3446 38.6643C57.0556 37.974 57.0556 36.8385 56.3446 36.1482C55.645 35.4469 54.4939 35.4469 53.7943 36.1482Z" fill="#233B6E"/>
</svg>
