<svg width="57" height="57" viewBox="0 0 57 57" fill="none" xmlns="http://www.w3.org/2000/svg">
<path d="M57 28.5C57 30.9239 55.0365 32.886 52.6154 32.886H32.8846V52.6168C32.8846 55.0406 30.9211 57 28.5 57C26.0789 57 24.1154 55.0406 24.1154 52.6168V32.886H4.38462C1.96349 32.886 0 30.9239 0 28.5C0 26.0761 1.96349 24.1168 4.38462 24.1168H24.1154V4.38599C24.1154 1.96212 26.0789 0 28.5 0C30.9211 0 32.8846 1.96212 32.8846 4.38599V24.1168H52.6154C55.0406 24.1154 57 26.0748 57 28.5Z" fill="white"/>
</svg>
