<svg width="115" height="101" viewBox="0 0 115 101" fill="none" xmlns="http://www.w3.org/2000/svg">
<path d="M0 12.625C0 5.65166 5.72005 0 12.7778 0H44.7222V25.25C44.7222 28.7416 47.5773 31.5625 51.1111 31.5625H76.6667V39.177C61.9123 43.2998 51.1111 56.6941 51.1111 72.5938C51.1111 84.2522 56.921 94.5494 65.8255 100.862C65.2066 100.941 64.5477 101 63.8889 101H12.7778C5.72005 101 0 95.3385 0 88.375V12.625ZM51.1111 25.25V0L76.6667 25.25H51.1111ZM115 72.5938C115 88.2764 102.122 101 86.25 101C70.3776 101 57.5 88.2764 57.5 72.5938C57.5 56.9111 70.3776 44.1875 86.25 44.1875C102.122 44.1875 115 56.9111 115 72.5938ZM95.1745 64.0522L83.0556 76.0262L77.3255 70.3647C76.0877 69.1219 74.0512 69.1219 72.8134 70.3647C71.5556 71.5877 71.5556 73.5998 72.8134 74.8228L80.7995 82.7135C82.0373 83.9562 84.0738 83.9562 85.3116 82.7135L99.6866 68.5103C100.944 67.2873 100.944 65.2752 99.6866 64.0522C98.4488 62.8094 96.4123 62.8094 95.1745 64.0522Z" fill="white"/>
</svg>
