<svg width="36" height="39" viewBox="0 0 36 39" fill="none" xmlns="http://www.w3.org/2000/svg">
<path d="M35.0641 31.2477C32.6041 34.5069 29.1831 36.9116 25.2834 38.1226C21.3837 39.3337 17.2023 39.29 13.3288 37.9977C9.45529 36.7055 6.0852 34.2298 3.69382 30.9199C1.30244 27.61 0.0104473 23.633 6.30549e-05 19.5496C-0.0103212 15.4662 1.26142 11.4826 3.63594 8.16062C6.01045 4.83862 9.36791 2.34585 13.2348 1.03389C17.1017 -0.278069 21.2828 -0.343021 25.1886 0.848198C29.0944 2.03942 32.5276 4.42669 35.0042 7.67334L28.9287 12.3078C27.4226 10.3334 25.3347 8.88157 22.9595 8.15714C20.5842 7.43272 18.0415 7.47222 15.6899 8.27007C13.3383 9.06792 11.2965 10.5839 9.85247 12.6041C8.40844 14.6243 7.63505 17.0469 7.64136 19.5302C7.64768 22.0134 8.43338 24.432 9.88767 26.4449C11.342 28.4577 13.3914 29.9633 15.7471 30.7492C18.1027 31.535 20.6456 31.5616 23.0171 30.8251C25.3886 30.0886 27.4691 28.6262 28.9651 26.6442L35.0641 31.2477Z" fill="#415F9D"/>
</svg>
