<svg width="21" height="18" viewBox="0 0 21 18" fill="none" xmlns="http://www.w3.org/2000/svg">
<path d="M16.7626 11.2H2.71711V2.7C2.71711 2.11815 2.95053 1.55911 3.36768 1.14614C3.785 0.732993 4.35206 0.5 4.94438 0.5H17.6717C18.264 0.5 18.831 0.732993 19.2484 1.14614C19.6655 1.55911 19.8989 2.11815 19.8989 2.7V4H18.5807H18.0807V4.5V15.3C18.0807 15.8818 17.8473 16.4409 17.4302 16.8539C17.0129 17.267 16.4458 17.5 15.8535 17.5H3.1262C2.53388 17.5 1.96681 17.267 1.5495 16.8539C1.13235 16.4409 0.898926 15.8818 0.898926 15.3V14H14.4444V15.3V15.3001C14.4444 15.6444 14.5722 15.976 14.8021 16.232C15.032 16.4879 15.3478 16.6505 15.6892 16.6903L15.7033 16.692L15.7175 16.6928L15.8239 16.6991L15.8387 16.7L15.8535 16.7C16.1972 16.7 16.5297 16.5751 16.7878 16.3479C17.0461 16.1205 17.212 15.8063 17.2527 15.4644L17.2544 15.45L17.2553 15.4355L17.2617 15.3302L17.2626 15.3151V15.3V11.7V11.2H16.7626Z" fill="#516694" stroke="#415F9D"/>
</svg>
